<svg width="238" height="51" viewBox="0 0 238 51" fill="none" xmlns="http://www.w3.org/2000/svg">
<path d="M110.506 21.9647L104.352 31.4053H104.227L98.1366 22.0598V36.392H93.3889V14.2929H98.5744L104.32 23.6384L110.067 14.2929H115.252V36.392H110.504V21.9647H110.506ZM158.852 14.2929H175.312V18.6189H163.6V23.1024H173.905V27.4268H163.6V32.0692H175.468V36.3936H158.852V14.2929ZM201.892 21.9008V21.8385C201.892 20.7861 201.559 19.9959 200.892 19.4697C200.226 18.9452 199.3 18.6796 198.113 18.6796H193.334V25.0269H198.208C199.395 25.0269 200.305 24.7433 200.941 24.1745C201.574 23.6073 201.892 22.8499 201.892 21.9008ZM72.5274 27.1432L69.6224 19.9763L66.719 27.1432H72.5274ZM220.797 4.82112H16.9187L11.7119 14.2929H47.5412V18.7763H40.8885V36.392H36.0785V18.7763H9.2479L5.7117 25.2105L17.3515 45.6015H79.8212L74.2455 31.4348H65.0009L63.0025 36.3904H58.099L67.4682 14.1322H71.9028L84.7164 45.5998H129.244V14.2896H138.178C139.489 14.2896 140.661 14.4748 141.692 14.842C142.724 15.2092 143.596 15.7305 144.316 16.4043C145.035 17.078 145.584 17.8829 145.973 18.8189C146.357 19.7566 146.55 20.7926 146.55 21.9286V21.9909C146.55 23.2761 146.321 24.4023 145.863 25.3711C145.406 26.3383 144.775 27.1497 143.975 27.8005C143.173 28.453 142.235 28.9431 141.163 29.2693C140.091 29.5956 138.94 29.7595 137.712 29.7595H134.058V45.5982H207.433L197.116 29.3169H197.054H193.335V36.3871H188.525V14.2929H198.521C201.288 14.2929 203.413 15.0404 204.893 16.5338C206.143 17.7977 206.767 19.4812 206.767 21.586V21.65C206.767 23.4384 206.334 24.8957 205.47 26.0219C204.608 27.1498 203.477 27.9727 202.083 28.5005L213.003 45.6031H220.8L232.296 25.2121L220.797 4.82112ZM134.056 25.4383H137.866C139.073 25.4383 140.01 25.117 140.678 24.4761C141.342 23.8335 141.676 23.0384 141.676 22.0909V22.027C141.676 20.9336 141.327 20.1008 140.63 19.5337C139.93 18.9648 138.978 18.6796 137.771 18.6796H134.054V25.4383H134.056ZM223.399 50.4242H14.3153L0 25.2121L14.3153 0H223.399L237.714 25.2121L223.399 50.4242Z" fill="white"/>
</svg>
